<svg width="26" height="39" viewBox="0 0 26 39" fill="none" xmlns="http://www.w3.org/2000/svg">
<path d="M6.5541 1.23116C8.1953 1.23116 9.52939 2.57017 9.52939 4.21628C9.52939 5.85994 8.1953 7.19895 6.5541 7.19895C4.91289 7.19895 3.5788 5.85994 3.5788 4.21628C3.5788 2.57017 4.91289 1.23116 6.5541 1.23116ZM12.5071 2.42521C14.1484 2.42521 15.4824 3.76422 15.4824 5.41033C15.4824 7.054 14.1484 8.393 12.5071 8.393C11.3843 8.393 10.3574 7.7493 9.8537 6.76162C10.3967 6.0565 10.721 5.17202 10.721 4.21628C10.721 3.84284 10.6718 3.48167 10.5785 3.13771C11.1165 2.67827 11.7971 2.42521 12.5071 2.42521ZM18.4602 3.61926C20.1014 3.61926 21.4355 4.95827 21.4355 6.60193C21.4355 8.24804 20.1014 9.58705 18.4602 9.58705C17.3374 9.58705 16.3104 8.94335 15.8068 7.95567C16.3497 7.25055 16.674 6.36607 16.674 5.41033C16.674 5.03689 16.6249 4.67572 16.5315 4.33176C17.0696 3.87232 17.7502 3.61926 18.4602 3.61926ZM6.5541 8.393C7.45578 8.393 8.28866 8.10555 8.97168 7.61417C9.72349 8.8205 11.0576 9.58705 12.5071 9.58705C13.4088 9.58705 14.2417 9.29959 14.9247 8.80822C15.6765 10.0121 17.0106 10.7811 18.4602 10.7811C20.7574 10.7811 22.6271 8.90649 22.6271 6.60193C22.6271 4.29982 20.7574 2.42521 18.4602 2.42521C17.588 2.42521 16.7453 2.69792 16.0426 3.20159C15.3055 2.01982 13.996 1.23116 12.5071 1.23116C11.635 1.23116 10.7922 1.50387 10.0896 2.00754C9.3525 0.825772 8.04297 0.0371094 6.5541 0.0371094C4.2569 0.0371094 2.38721 1.91172 2.38721 4.21628C2.38721 6.51839 4.2569 8.393 6.5541 8.393Z" fill="#393939"/>
<path d="M11.9129 22.1218C11.9129 22.4535 11.6451 22.7188 11.3159 22.7188H10.7213V14.9599C10.7213 14.6307 10.456 14.3629 10.1268 14.3629C9.79755 14.3629 9.52975 14.6307 9.52975 14.9599V23.2913L8.43398 36.4995C8.40695 36.8066 8.14652 37.0474 7.83941 37.0474H5.2695C4.96239 37.0474 4.70196 36.8066 4.67493 36.4995L3.57916 23.2913V14.9599C3.57916 14.6307 3.31136 14.3629 2.98213 14.3629C2.65291 14.3629 2.38756 14.6307 2.38756 14.9599V22.7188H1.793C1.46377 22.7188 1.19597 22.4535 1.19597 22.1218V13.2426C1.19597 12.4195 1.75369 11.7045 2.54972 11.5055L5.18105 10.8446L6.13433 11.8004C6.36527 12.0338 6.74363 12.0338 6.97458 11.8004L7.92786 10.8446L10.5592 11.5055C11.3552 11.7045 11.9129 12.4195 11.9129 13.2426V22.1218ZM22.7527 12.734L19.7946 11.992C19.5514 11.9306 19.2934 12.0313 19.1559 12.2401L18.6694 12.9698C18.2787 12.2745 17.6154 11.7463 16.7997 11.5399L13.8416 10.798C13.5984 10.7365 13.3428 10.8373 13.2028 11.0461L12.7163 11.7758C12.3257 11.0805 11.6648 10.5523 10.8491 10.3459L7.88855 9.6039C7.68708 9.55477 7.47087 9.61373 7.32346 9.76114L6.55445 10.5351L5.78545 9.76114C5.63803 9.61373 5.42183 9.55477 5.22036 9.6039L2.25981 10.3459C0.933084 10.68 0.00683594 11.8692 0.00683594 13.2426V22.1218C0.00683594 23.1094 0.807782 23.9128 1.793 23.9128H2.43425L3.48825 36.5978C3.56687 37.5191 4.34817 38.239 5.2695 38.239H7.83941C8.76074 38.239 9.54204 37.5191 9.62066 36.5978L10.6747 23.9128H11.3159C12.3011 23.9128 13.1021 23.1094 13.1021 22.1218V13.3507L13.9595 12.0583L16.5122 12.6996C17.3083 12.8986 17.8635 13.6136 17.8635 14.4366V23.3158C17.8635 23.645 17.5982 23.9128 17.269 23.9128H16.6744V16.154C16.6744 15.8248 16.4066 15.557 16.0798 15.557C15.7506 15.557 15.4828 15.8248 15.4828 16.154V24.4828L14.2961 37.5879C14.2666 37.9171 14.5074 38.2071 14.8342 38.2365C14.8538 38.239 14.871 38.239 14.8882 38.239C15.1929 38.239 15.4533 38.008 15.4803 37.696L16.6228 25.1069H17.269C18.2542 25.1069 19.0551 24.3035 19.0551 23.3158V14.5447L19.9126 13.2524L22.4653 13.8936C23.2613 14.0926 23.8166 14.8076 23.8166 15.6307V24.5099C23.8166 24.8391 23.5512 25.1069 23.222 25.1069H22.6274V17.348C22.6274 17.0163 22.3596 16.751 22.0304 16.751C21.7012 16.751 21.4359 17.0163 21.4359 17.348V25.6769L20.3548 37.5904C20.3253 37.9171 20.5686 38.2095 20.8953 38.239C20.9125 38.239 20.9322 38.2414 20.9494 38.2414C21.254 38.2414 21.5145 38.008 21.5415 37.6985L22.5759 26.3009H23.222C24.2072 26.3009 25.0082 25.4975 25.0082 24.5099V15.6307C25.0082 14.2573 24.0795 13.0681 22.7527 12.734Z" fill="#393939"/>
</svg>
