<svg width="20" height="20" viewBox="0 0 20 20" fill="none" xmlns="http://www.w3.org/2000/svg">
<circle cx="10" cy="10" r="10" fill="#D2AC47"/>
<g clip-path="url(#clip0_211_264)">
<path d="M11.6355 10.605C11.9245 10.6975 12.1745 10.813 12.407 10.955L12.3915 10.946C12.656 11.0635 12.8845 11.201 13.093 11.3625L13.0855 11.357C13.0955 11.3875 13.1015 11.422 13.1015 11.4585C13.1015 11.464 13.1015 11.469 13.101 11.4745V11.474C13.0935 11.6885 13.046 11.89 12.9655 12.0735L12.9695 12.063C12.854 12.2945 12.6615 12.473 12.426 12.568L12.419 12.5705C12.1895 12.692 11.9185 12.767 11.631 12.776H11.628C11.078 12.703 10.581 12.534 10.134 12.285L10.1555 12.296C9.64451 12.062 9.20801 11.7545 8.83751 11.3815L8.83701 11.381C8.42501 10.9525 8.04751 10.4835 7.71301 9.984L7.68951 9.947C7.37151 9.5325 7.16901 9.014 7.13951 8.4495L7.13901 8.443V8.381C7.15501 7.8935 7.37301 7.4595 7.71101 7.1575L7.71251 7.156C7.81601 7.053 7.95801 6.9885 8.11501 6.9855H8.11551C8.16601 6.987 8.21451 6.991 8.26151 6.998L8.25501 6.997C8.29851 7.0035 8.34901 7.0075 8.40101 7.0085H8.40251C8.41201 7.0075 8.42251 7.007 8.43351 7.007C8.49851 7.007 8.55901 7.0265 8.60951 7.0595L8.60851 7.059C8.66201 7.118 8.70301 7.1895 8.72751 7.268L8.72851 7.272C8.76985 7.37533 8.85518 7.60267 8.98451 7.954C9.05201 8.111 9.11801 8.3045 9.17101 8.5035L9.17801 8.535C9.14001 8.7155 9.04401 8.869 8.91151 8.9795L8.91001 8.9805C8.73168 9.16917 8.64251 9.28917 8.64251 9.3405C8.64451 9.3845 8.65951 9.4245 8.68301 9.4575L8.68251 9.457C8.88501 9.8715 9.15051 10.2235 9.47051 10.5165L9.47301 10.519C9.81051 10.8235 10.196 11.085 10.614 11.289L10.6435 11.302C10.692 11.3335 10.75 11.3535 10.813 11.3565H10.814C10.8917 11.3565 11.0313 11.2312 11.233 10.9805C11.4347 10.7298 11.5687 10.6045 11.635 10.6045L11.6355 10.605ZM10.062 14.713H10.073C10.7515 14.713 11.3965 14.5705 11.98 14.3135L11.9495 14.3255C13.1275 13.8285 14.046 12.91 14.531 11.7635L14.543 11.732C14.788 11.1755 14.9305 10.5265 14.9305 9.8445C14.9305 9.1625 14.788 8.5135 14.531 7.926L14.543 7.957C14.046 6.779 13.1275 5.8605 11.981 5.3755L11.9495 5.3635C11.393 5.1185 10.744 4.976 10.062 4.976C9.38001 4.976 8.73101 5.1185 8.14351 5.3755L8.17451 5.3635C6.99651 5.8605 6.07801 6.779 5.59301 7.9255L5.58101 7.957C5.33601 8.5155 5.19351 9.1665 5.19351 9.8505C5.19351 10.921 5.54251 11.9105 6.13301 12.7105L6.12351 12.6975L5.51101 14.504L7.38701 13.907C8.13201 14.412 9.05051 14.713 10.0395 14.713H10.063H10.062ZM10.062 4H10.0785C10.8925 4 11.6665 4.171 12.366 4.4795L12.3295 4.465C13.742 5.0635 14.8435 6.165 15.4275 7.5395L15.442 7.5775C15.736 8.246 15.907 9.0255 15.907 9.845C15.907 10.6645 15.736 11.444 15.4275 12.1495L15.442 12.1125C14.8435 13.525 13.742 14.6265 12.3675 15.2105L12.3295 15.225C11.666 15.519 10.892 15.69 10.078 15.69C10.0725 15.69 10.0665 15.69 10.061 15.69H10.062C10.054 15.69 10.045 15.69 10.0355 15.69C9.00601 15.69 8.03951 15.4195 7.20351 14.946L7.23201 14.961L3.99951 16L5.05401 12.8605C4.52851 12.0035 4.21701 10.966 4.21701 9.8555C4.21701 9.0325 4.38801 8.2495 4.69651 7.54L4.68201 7.5775C5.28051 6.165 6.38201 5.0635 7.75651 4.4795L7.79451 4.465C8.45801 4.171 9.23201 4 10.046 4H10.0625H10.0615L10.062 4Z" fill="white"/>
</g>
<defs>
<clipPath id="clip0_211_264">
<rect width="12" height="12" fill="white" transform="translate(4 4)"/>
</clipPath>
</defs>
</svg>
