<svg width="64" height="17" viewBox="0 0 64 17" fill="none" xmlns="http://www.w3.org/2000/svg">
<path d="M0.255859 9.04183H4.42773V8.81787H0.255859V9.04183Z" fill="#393939"/>
<path d="M7.59489 14.8488C9.6626 14.8488 11.5793 12.8644 11.5793 9.79151V3.76026C11.5793 2.44776 11.7251 2.08317 12.2199 1.93734V1.729H9.64697V1.93734C10.1418 2.08317 10.2824 2.44776 10.2824 3.76026V11.7446C10.2824 13.3592 9.81885 13.7603 9.43864 13.9998C8.66781 13.8384 8.2876 13.7603 7.83968 13.7603C7.27718 13.7603 6.95947 14.1561 6.95947 14.4946C6.95947 14.7967 7.18343 14.8488 7.59489 14.8488Z" fill="#393939"/>
<path d="M17.8013 13.0887C19.6919 13.0887 21.9784 11.6147 21.9784 8.88037C21.9784 6.03141 19.7856 4.81787 17.8013 4.81787C15.6086 4.81787 13.6138 6.54704 13.6138 9.04183C13.6138 11.8231 15.77 13.0887 17.8013 13.0887ZM14.8429 8.13037C14.8429 6.5262 15.5773 5.18245 17.2127 5.11995C19.3065 5.01058 20.7596 7.76058 20.7596 9.82308C20.7596 11.3752 19.994 12.7502 18.2804 12.7502C16.1554 12.7502 14.8429 10.1616 14.8429 8.13037Z" fill="#393939"/>
<path d="M23.1452 16.0158C24.1712 16.0002 25.5775 15.6616 26.9368 12.5262L29.416 6.80225C29.9421 5.59912 30.3587 5.28141 30.8066 5.13558V4.92725H29.0306V5.13558C29.5931 5.25016 29.6243 5.76058 29.1764 6.80225L27.2077 11.3752L25.2389 6.80225C24.7285 5.59912 24.6035 5.28141 25.0827 5.13558V4.92725H22.666V5.13558C22.9993 5.28141 23.4004 5.59912 23.8952 6.80225L26.5202 12.9585C26.1191 13.7918 25.6243 14.5731 25.0671 15.0522C24.3275 14.9272 23.4681 14.6877 23.0514 14.6877C22.4577 14.6877 22.0566 15.2606 22.0566 15.5679C22.0566 15.8231 22.5202 16.0314 23.1452 16.0158Z" fill="#393939"/>
<path d="M35.0926 13.0887C36.8062 13.0887 38.0562 11.9533 38.8687 10.8335L38.728 10.6877C37.9884 11.521 37.1082 12.0783 35.8791 12.0783C33.8009 12.0783 32.4416 10.5783 32.4416 8.38558C32.4416 8.13037 32.4572 7.89079 32.4884 7.646H38.7437C38.6968 6.13037 37.5249 4.81787 35.5093 4.81787C33.2697 4.81787 31.3062 6.56266 31.3062 9.16683C31.3062 11.8075 33.3374 13.0887 35.0926 13.0887ZM32.5353 7.44287C32.7905 6.09912 33.6239 5.0887 34.9832 5.10433C36.4364 5.10433 37.3009 6.36995 37.4624 7.44287H32.5353Z" fill="#393939"/>
<path d="M39.9277 12.9271H42.4538V12.7187C41.959 12.5729 41.8132 12.2083 41.8132 10.8958V0.114582L41.6673 0L39.9277 0.770831V0.947915C40.36 1.13542 40.5684 1.29687 40.5684 2.41667V10.8958C40.5684 12.2083 40.4069 12.5729 39.9277 12.7187V12.9271Z" fill="#393939"/>
<path d="M43.7188 12.9271H46.2448V12.7187C45.75 12.5729 45.6042 12.2083 45.6042 10.8958V0.114582L45.4583 0L43.7188 0.770831V0.947915C44.151 1.13542 44.3594 1.29687 44.3594 2.41667V10.8958C44.3594 12.2083 44.1979 12.5729 43.7188 12.7187V12.9271Z" fill="#393939"/>
<path d="M53.6038 12.9272H54.9945V12.7189C54.4997 12.5731 54.3538 12.2085 54.3538 10.896V7.69808C54.3538 5.89079 53.458 4.81787 51.5257 4.81787C50.1299 4.81787 48.9632 5.50537 48.0518 6.64079L48.1976 6.771C48.9945 5.79183 49.9215 5.34391 50.8851 5.34391C52.2445 5.34391 53.0413 6.06266 53.1247 7.61475L51.0413 8.17725C49.1403 8.70329 47.458 9.32829 47.458 10.9897C47.458 12.37 48.5153 13.0887 49.6976 13.0887C51.2861 13.0887 52.6299 11.5366 53.1247 9.56787V12.4481C53.1247 12.7502 53.2809 12.9272 53.6038 12.9272ZM48.6611 10.5418C48.6455 9.23454 49.9215 8.70329 51.109 8.36995L53.1247 7.82308V8.30225C53.109 9.98454 52.0049 12.146 50.2913 12.146C49.3799 12.146 48.6611 11.5835 48.6611 10.5418Z" fill="#393939"/>
<path d="M59.5718 9.04183H63.7437V8.81787H59.5718V9.04183Z" fill="#393939"/>
</svg>
