<svg width="37" height="37" viewBox="0 0 37 37" fill="none" xmlns="http://www.w3.org/2000/svg">
<path d="M13.9346 32.8174L12.2796 31.1751C13.1708 30.5233 14.0594 29.8562 14.92 29.1814C15.167 28.9879 15.2077 28.6365 15.0117 28.3921C14.8182 28.1476 14.4642 28.1069 14.2173 28.303C13.321 29.0057 12.3992 29.6983 11.4699 30.373L9.44562 28.3666L28.4252 9.55249L30.447 11.5589C26.2278 17.2676 21.3416 22.4415 15.9054 26.9407C15.6635 27.1368 15.633 27.4933 15.8316 27.7301C15.9462 27.8625 16.1066 27.9312 16.2695 27.9312C16.3968 27.9312 16.5241 27.8905 16.6311 27.8013C22.0928 23.2843 27.007 18.0875 31.2592 12.3584L32.9143 14.0033C29.5685 23.1748 23.1851 29.4997 13.9346 32.8174ZM3.50525 33.4616C0.892816 30.8696 0.890269 26.6581 3.49761 24.0635L4.28185 24.8375C2.10228 27.0044 2.10228 30.5233 4.28695 32.6876C5.37673 33.7697 6.81281 34.3095 8.24634 34.3095C9.67987 34.3095 11.1134 33.7697 12.2032 32.6901L12.9849 33.4642C10.3724 36.0511 6.11769 36.0511 3.50525 33.4616ZM11.4037 31.8957C9.66205 33.6195 6.82809 33.6195 5.08646 31.8931C3.34738 30.1668 3.34738 27.3608 5.08392 25.632L11.4037 31.8957ZM23.1342 4.30979L24.7918 5.95211C23.702 6.74654 22.6224 7.56388 21.5759 8.39904C21.334 8.59256 21.2958 8.94648 21.4918 9.18583C21.6039 9.32587 21.7694 9.39717 21.9323 9.39717C22.0571 9.39717 22.1844 9.35643 22.2888 9.2724C23.3659 8.41177 24.4786 7.57152 25.6015 6.75418L27.6257 8.75806L8.64355 27.5747L6.62184 25.5683C10.7213 20.0226 15.4547 14.9734 20.7051 10.5684C20.9444 10.3698 20.9724 10.0134 20.7713 9.77656C20.5701 9.5423 20.2136 9.51175 19.9717 9.71035C14.6985 14.1383 9.93959 19.2027 5.81214 24.7662L4.15454 23.1239C7.50284 13.9524 13.8837 7.62753 23.1342 4.30979ZM25.6651 5.22898C27.4068 3.50773 30.2407 3.50773 31.9823 5.23407C33.724 6.96042 33.724 9.76637 31.9849 11.4953L25.6651 5.22898ZM33.5635 3.66559C36.176 6.25766 36.1785 10.4691 33.5686 13.0637L32.7869 12.2871C34.9665 10.1228 34.9665 6.60395 32.7819 4.43965C30.5997 2.27535 27.0503 2.27535 24.8656 4.4371L24.0839 3.66305C26.6964 1.07353 30.9511 1.07353 33.5635 3.66559ZM34.3656 2.87117C31.3076 -0.156303 26.3348 -0.15885 23.2768 2.87117L22.9661 3.17926C13.1962 6.62177 6.48434 13.2725 3.01383 22.9559L2.70319 23.264C-0.354839 26.294 -0.354839 31.226 2.70319 34.2535C4.23093 35.7711 6.23991 36.5273 8.24634 36.5273C10.2553 36.5273 12.2643 35.7711 13.792 34.2535L14.1027 33.948C23.8726 30.5054 30.5845 23.8547 34.055 14.1714L34.3656 13.8633C37.4236 10.8307 37.4236 5.90119 34.3656 2.87117Z" fill="#393939"/>
</svg>
