<svg width="39" height="39" viewBox="0 0 39 39" fill="none" xmlns="http://www.w3.org/2000/svg">
<path d="M13.0868 6.88347C13.0868 6.54227 12.8271 6.27237 12.4987 6.26473C12.1575 6.25709 11.8672 6.53718 11.8621 6.88092C11.8596 7.22975 12.1371 7.49456 12.4987 7.48947C12.8526 7.48438 13.0868 7.24249 13.0868 6.88347ZM10.729 6.87328C10.7367 5.88534 11.5209 5.11638 12.5139 5.12656C13.4739 5.13675 14.2581 5.92863 14.2607 6.88601C14.2632 7.84594 13.4382 8.67092 12.4834 8.66583C11.5133 8.66074 10.7239 7.85358 10.729 6.87328Z" fill="#393939"/>
<path d="M8.65851 6.88347C8.65851 6.54227 8.40134 6.27237 8.07288 6.26473C7.72914 6.25709 7.43887 6.53718 7.43632 6.88092C7.43123 7.22975 7.71132 7.49456 8.07288 7.48947C8.42426 7.48438 8.66106 7.24249 8.65851 6.88347ZM6.30325 6.87328C6.30834 5.88534 7.09513 5.11638 8.08561 5.12656C9.04554 5.13675 9.83233 5.92863 9.83233 6.88601C9.83487 7.84594 9.00989 8.67092 8.05506 8.66583C7.08494 8.66074 6.29815 7.85358 6.30325 6.87328Z" fill="#393939"/>
<path d="M16.9391 6.26474C16.5877 6.2571 16.3178 6.527 16.3178 6.88856C16.3178 7.23994 16.5572 7.48184 16.9111 7.48948C17.2599 7.49711 17.5273 7.25268 17.5426 6.91657C17.5578 6.57792 17.2701 6.26983 16.9391 6.26474ZM16.934 5.12402C17.9194 5.12657 18.6986 5.9159 18.6909 6.90384C18.6833 7.86632 17.899 8.6582 16.9417 8.66838C15.9843 8.67602 15.1593 7.85613 15.1567 6.89366C15.1542 5.921 15.9563 5.12402 16.934 5.12402Z" fill="#393939"/>
<path d="M11.2837 10.6668C12.6892 10.6668 14.0947 10.6617 15.4977 10.6719C15.6734 10.6719 15.9127 10.6846 16.0095 10.7941C16.1444 10.9469 16.2463 11.199 16.231 11.3976C16.2081 11.6751 15.9713 11.833 15.681 11.8381C15.1921 11.8457 14.7058 11.8406 14.2169 11.8406C11.882 11.8432 9.54967 11.8406 7.21477 11.8406C7.11802 11.8406 7.01871 11.8457 6.92196 11.8406C6.54766 11.8203 6.30322 11.586 6.30322 11.2524C6.30322 10.9189 6.54766 10.6719 6.92196 10.6694C7.82587 10.6592 8.72978 10.6668 9.6337 10.6668C10.1837 10.6668 10.7337 10.6668 11.2837 10.6668Z" fill="#393939"/>
<path d="M22.5231 9.6918C22.5231 10.3513 22.4722 10.4124 21.8331 10.5321C21.6065 10.5753 21.3798 10.6135 21.1074 10.6645C21.1074 7.9018 21.1074 5.17733 21.1074 2.41976C21.4715 2.44013 21.8229 2.41212 22.1412 2.50124C22.2965 2.54452 22.4594 2.78896 22.5027 2.97229C22.5664 3.22691 22.5231 3.507 22.5231 3.77435C22.5231 5.74769 22.5231 7.71847 22.5231 9.6918ZM15.2434 19.9277C14.696 19.9302 14.1485 19.9302 13.5451 19.9302C13.899 18.3668 14.5432 16.974 15.5184 15.6347C15.5642 16.2 15.5948 16.6812 15.6406 17.1625C15.7094 17.855 15.7858 18.5476 15.8647 19.2376C15.9233 19.7545 15.7781 19.9251 15.2434 19.9277ZM23.6409 2.88317C23.6358 2.02255 22.9865 1.39108 22.131 1.3427C20.4734 1.24849 18.8158 1.15937 17.1582 1.06771C17.1582 1.07025 17.1582 1.0728 17.1582 1.07535C16.2925 1.02442 15.4267 0.973497 14.561 0.927665C13.7437 0.884379 12.9263 0.841093 12.109 0.807992C11.7245 0.792714 11.4928 0.981136 11.4724 1.3096C11.4495 1.63806 11.6481 1.85195 12.0301 1.90287C12.1625 1.9207 12.2974 1.92324 12.4298 1.93088C14.8335 2.05819 17.2346 2.1906 19.6357 2.30772C19.8776 2.32045 19.9438 2.40703 19.9412 2.63873C19.9361 5.29446 19.9361 7.95272 19.9438 10.611C19.9438 10.83 19.8674 10.9114 19.6586 10.9955C19.0831 11.2195 18.4899 11.436 17.9628 11.7593C15.3427 13.3609 13.7131 15.7467 12.7456 18.6138C12.4095 19.6068 12.165 20.6202 11.9817 21.6464C11.2764 21.6387 10.5736 21.6413 9.86832 21.6413C9.57295 21.6413 9.27759 21.6413 8.97968 21.6413C8.49335 21.6413 8.00702 21.6362 7.52324 21.6464C7.31954 21.6489 7.18713 21.8934 7.18713 22.2295C7.18713 22.563 7.31954 22.7973 7.52324 22.8176C7.57416 22.8227 7.62763 22.8176 7.67856 22.8176C8.93385 22.8176 10.1917 22.8176 11.447 22.8176C11.5616 22.8176 11.6787 22.8202 11.7958 22.8202C11.7042 23.4771 11.6278 24.1391 11.5641 24.7986C11.5463 24.9896 11.531 25.178 11.5157 25.369C11.4979 25.3664 11.4826 25.3664 11.4674 25.3664C10.7111 25.3562 9.95489 25.3613 9.2012 25.3613C8.9033 25.3613 8.60793 25.3613 8.31257 25.3613C7.82624 25.3613 7.33991 25.3562 6.85358 25.3639C6.65242 25.369 6.52002 25.6134 6.52002 25.9495C6.52002 26.2831 6.65242 26.5173 6.85358 26.5351C6.90705 26.5402 6.95797 26.5377 7.01144 26.5377C8.26674 26.5377 9.52203 26.5377 10.7773 26.5377C10.9963 26.5377 11.2153 26.5377 11.4317 26.5351C11.4241 26.6777 11.4164 26.8178 11.4088 26.9604C11.391 27.2939 11.5921 27.5205 11.8824 27.5536C12.1854 27.5867 12.44 27.3805 12.496 27.052C12.5164 26.9425 12.5062 26.8305 12.5189 26.721C12.7328 24.9488 12.9569 23.1792 13.1581 21.4045C13.1937 21.1066 13.3261 21.0531 13.5884 21.0607C14.1613 21.076 14.7367 21.0709 15.3096 21.0633C15.5031 21.0607 15.7043 21.0506 15.8876 20.9971C16.7406 20.7476 17.0869 19.9913 16.9749 18.9474C16.817 17.4502 16.733 15.9454 16.6311 14.4456C16.6235 14.331 16.682 14.1783 16.7661 14.0968C17.9348 12.9357 19.2716 12.0776 20.9368 11.8332C21.4206 11.7619 21.9044 11.6906 22.3805 11.5887C23.1317 11.4309 23.6384 10.8478 23.6434 10.0839C23.6562 7.68537 23.6587 5.28427 23.6409 2.88317Z" fill="#393939"/>
<path d="M30.8593 6.56229C30.8542 3.69523 28.7459 1.54112 26.2557 1.55131C25.8916 1.55385 25.6599 1.76774 25.6955 2.07074C25.7235 2.33045 25.917 2.48323 26.2404 2.49341C27.3429 2.53415 28.2825 2.95173 28.9929 3.79963C29.991 4.98618 30.2125 6.33823 29.5989 7.75903C28.9903 9.16709 27.8598 9.90805 26.3346 10.0328C26.304 10.0354 26.276 10.0328 26.2455 10.0328C25.8967 10.0481 25.6904 10.2238 25.693 10.509C25.6955 10.8043 25.9145 10.9826 26.2786 10.9749C26.9024 10.9622 27.5059 10.8374 28.0686 10.5675C29.8739 9.7018 30.7727 8.23772 30.8593 6.56229Z" fill="#393939"/>
<path d="M28.9775 6.25435C28.9749 4.76735 27.7833 3.50696 26.3243 3.44076C25.9347 3.42293 25.703 3.58844 25.6928 3.89144C25.6801 4.17917 25.8863 4.3574 26.2606 4.38032C27.2664 4.44907 28.0379 5.26132 28.0379 6.25944C28.0405 7.26775 27.2689 8.08 26.2403 8.14875C25.7998 8.17675 25.5401 8.53832 25.7667 8.84387C25.8634 8.97372 26.0875 9.07812 26.2555 9.07812C27.74 9.07812 28.9826 7.77699 28.9775 6.25435Z" fill="#393939"/>
<path d="M10.171 37.0534C8.60763 37.0559 7.04424 37.0559 5.48086 37.0534C4.85194 37.0534 4.56167 36.8573 4.3376 36.2793C4.2332 36.0094 4.14154 35.7344 4.02441 35.4034C4.79847 35.4034 5.49359 35.4034 6.18871 35.4059C7.78774 35.4059 9.38933 35.4161 10.9884 35.4059C11.2863 35.4034 11.3958 35.4925 11.4009 35.7981C11.4136 36.6791 11.0647 37.0508 10.171 37.0534ZM2.82004 11.2651C2.52977 11.1378 2.27515 11.0105 2.00779 10.9112C1.82701 10.8424 1.79136 10.7558 1.8321 10.5649C2.02562 9.68643 2.19876 8.80034 2.37954 7.91679C2.76657 6.02239 3.1536 4.12545 3.55081 2.23105C3.57373 2.12156 3.65521 1.95606 3.73414 1.93823C4.06006 1.87458 4.39616 1.85676 4.76282 1.81856C4.76282 1.82111 4.76282 1.82365 4.76282 1.82365L5.03017 1.78291C4.91305 1.98152 4.81629 2.19795 4.7399 2.4373C3.97858 4.84094 3.5559 7.30315 3.36494 9.81374C3.3191 10.4019 3.3191 10.9748 3.38531 11.5274L2.82004 11.2651ZM12.5237 35.5078C12.4372 33.5879 12.4346 31.6655 12.3964 29.7431C12.3939 29.6591 12.3964 29.57 12.3812 29.4859C12.3328 29.2084 12.1545 29.0582 11.8795 29.0429C11.5995 29.0251 11.4059 29.16 11.3321 29.4299C11.2939 29.5674 11.2888 29.7202 11.2914 29.8653C11.2914 29.8806 11.2914 29.8984 11.2914 29.9163C10.6955 29.9137 10.1023 29.9137 9.509 29.9137C9.21364 29.9137 8.91573 29.9137 8.62036 29.9137C8.13403 29.9137 7.6477 29.9086 7.16137 29.9163C6.96022 29.9188 6.82781 30.1658 6.82781 30.4993C6.82781 30.8329 6.96022 31.0697 7.16137 31.0875C7.21484 31.0926 7.26577 31.0901 7.31924 31.0901C8.57453 31.0901 9.82983 31.0901 11.0851 31.0901C11.159 31.0901 11.2303 31.0901 11.3041 31.0901C11.3143 32.0042 11.3245 32.9183 11.3347 33.8324C11.3372 33.975 11.3347 34.115 11.3347 34.2576C8.75277 34.2576 6.21926 34.2576 3.68067 34.2576C3.64248 34.0921 3.60428 33.952 3.57627 33.8095C2.8786 30.3593 3.18415 26.9652 4.12881 23.6092C4.72972 21.4806 5.35354 19.3596 5.95955 17.2335C6.38222 15.7516 6.14288 14.4148 5.13966 13.2104C4.59986 12.5586 4.42417 11.7565 4.43945 10.9061C4.49801 8.13322 4.96652 5.43167 5.78386 2.78613C6.0283 1.98916 6.55791 1.61741 7.40326 1.65306C8.05001 1.67852 8.6942 1.7269 9.34095 1.76C9.73816 1.78037 9.99788 1.58431 10.0233 1.25584C10.0488 0.927379 9.82473 0.69058 9.42497 0.662571C8.74513 0.614193 8.06274 0.568361 7.3778 0.545445C7.05443 0.537806 6.74888 0.573453 6.47134 0.652386C5.44012 0.759328 4.41144 0.86627 3.38276 0.970666C2.85823 1.02414 2.77421 1.10052 2.66981 1.59959C2.03835 4.67034 1.40688 7.73856 0.777961 10.8093C0.678658 11.2906 0.747407 11.4255 1.19554 11.6241C1.87539 11.9271 2.56033 12.2276 3.24017 12.5331C3.41077 12.607 3.5559 12.6986 3.68067 12.8005C3.87928 13.3454 4.17209 13.8648 4.58967 14.3588C5.06073 14.9164 5.1804 15.6192 5.00216 16.3372C4.59731 17.9617 4.25103 19.6066 3.73414 21.1954C2.983 23.5048 2.33116 25.8245 2.15547 28.2612C1.95941 30.9908 2.21404 33.6567 3.11795 36.2564C3.43878 37.1807 3.91747 37.8911 4.89522 38.1737C6.87365 38.1737 8.85207 38.1737 10.8305 38.1737C12.2971 37.6899 12.5798 36.7351 12.5237 35.5078Z" fill="#393939"/>
<path d="M23.2995 28.6103L26.5128 31.7702L37.0772 21.3765L38.0065 22.2906L26.9763 33.1426L26.5128 33.5984L22.3701 29.5244L23.2995 28.6103Z" fill="#393939"/>
</svg>
