<svg width="20" height="20" viewBox="0 0 20 20" fill="none" xmlns="http://www.w3.org/2000/svg">
<circle cx="10" cy="10" r="10" fill="#D2AC47"/>
<path d="M10.0013 6.92335C8.29872 6.92335 6.92538 8.297 6.92538 10C6.92538 11.703 8.29872 13.0766 10.0013 13.0766C11.704 13.0766 13.0773 11.703 13.0773 10C13.0773 8.297 11.704 6.92335 10.0013 6.92335ZM10.0013 12.0002C8.90106 12.0002 8.00156 11.1032 8.00156 10C8.00156 8.8968 8.89838 7.99978 10.0013 7.99978C11.1043 7.99978 12.0011 8.8968 12.0011 10C12.0011 11.1032 11.1016 12.0002 10.0013 12.0002ZM13.9206 6.7975C13.9206 7.19647 13.5993 7.51512 13.2031 7.51512C12.8042 7.51512 12.4857 7.1938 12.4857 6.7975C12.4857 6.40121 12.8069 6.07988 13.2031 6.07988C13.5993 6.07988 13.9206 6.40121 13.9206 6.7975ZM15.9578 7.52583C15.9123 6.56454 15.6928 5.71304 14.9887 5.01149C14.2873 4.30994 13.436 4.09037 12.475 4.04217C11.4844 3.98594 8.51556 3.98594 7.52504 4.04217C6.56665 4.08769 5.71534 4.30726 5.01127 5.00881C4.30719 5.71036 4.09035 6.56187 4.04216 7.52315C3.98595 8.51389 3.98595 11.4834 4.04216 12.4742C4.08767 13.4355 4.30719 14.287 5.01127 14.9885C5.71534 15.6901 6.56397 15.9096 7.52504 15.9578C8.51556 16.0141 11.4844 16.0141 12.475 15.9578C13.436 15.9123 14.2873 15.6927 14.9887 14.9885C15.6901 14.287 15.9096 13.4355 15.9578 12.4742C16.0141 11.4834 16.0141 8.51657 15.9578 7.52583ZM14.6782 13.5372C14.4694 14.062 14.0651 14.4664 13.5378 14.6779C12.748 14.9912 10.8741 14.9189 10.0013 14.9189C9.12861 14.9189 7.25198 14.9885 6.46492 14.6779C5.94021 14.469 5.53597 14.0647 5.32448 13.5372C5.01127 12.7473 5.08355 10.8729 5.08355 10C5.08355 9.12708 5.01394 7.25003 5.32448 6.46279C5.5333 5.93797 5.93753 5.53364 6.46492 5.3221C7.25466 5.00881 9.12861 5.08111 10.0013 5.08111C10.8741 5.08111 12.7507 5.01149 13.5378 5.3221C14.0625 5.53096 14.4667 5.93529 14.6782 6.46279C14.9914 7.25271 14.9191 9.12708 14.9191 10C14.9191 10.8729 14.9914 12.75 14.6782 13.5372Z" fill="white"/>
</svg>
