<svg width="17" height="19" viewBox="0 0 17 19" fill="none" xmlns="http://www.w3.org/2000/svg">
<path d="M16.8892 13.0259C16.8892 14.2759 15.8979 15.7915 14.1985 16.0915C12.4992 16.3909 10.9267 15.5321 10.6867 14.1721C10.4467 12.8121 11.6304 11.4671 13.3298 11.1678C14.1823 11.0171 15.0023 11.159 15.6392 11.509V4.5665L6.26417 6.80338C6.26417 6.80338 6.26417 13.6509 6.26417 14.9009C6.26417 16.1509 5.27292 17.6665 3.57355 17.9665C1.87417 18.2659 0.301671 17.4071 0.061671 16.0471C-0.178329 14.6871 1.00542 13.3421 2.7048 13.0428C3.55792 12.8921 4.37792 13.0334 5.01417 13.3834V8.33619V3.289L16.8892 0.525879C16.8892 0.525879 16.8892 11.7759 16.8892 13.0259Z" fill="white"/>
</svg>
