<svg width="37" height="37" viewBox="0 0 37 37" fill="none" xmlns="http://www.w3.org/2000/svg">
<path d="M21.5402 29.9402L32.512 23.3251C33.3599 22.7675 33.6145 21.6497 33.0543 20.7178C32.5272 19.8368 31.4145 19.5414 30.5234 20.0456L21.4155 25.1813L13.9957 24.4633C13.5807 24.4225 13.2752 24.061 13.3032 23.6434C13.3184 23.4397 13.4101 23.2513 13.5654 23.1163C13.7208 22.9814 13.9168 22.9152 14.1256 22.9279L20.3792 23.3811C20.9062 23.4193 21.4308 23.2283 21.8152 22.8617C22.1972 22.495 22.4085 21.9781 22.3958 21.4485L22.3856 21.0844C22.3576 20.1423 21.6345 19.3606 20.7025 19.2613L12.1599 18.3574C12.0682 18.3472 11.9766 18.3599 11.8926 18.3956L5.5397 20.9622L1.36897 20.0736C1.06597 20.0048 0.770605 20.2034 0.706948 20.5039C0.643293 20.8043 0.836806 21.1022 1.13472 21.1659L5.4735 22.0876C5.58553 22.1131 5.69502 22.1029 5.79942 22.0596L12.1803 19.4803L20.5854 20.3715C20.9673 20.4122 21.2627 20.7305 21.2729 21.115L21.2831 21.4791C21.2882 21.6981 21.2041 21.9043 21.0463 22.0571C20.8859 22.2073 20.672 22.2837 20.4606 22.2684L14.2045 21.8152C13.6902 21.7744 13.2141 21.9425 12.8347 22.2735C12.4553 22.6045 12.2287 23.0654 12.1956 23.5695C12.1243 24.5931 12.8703 25.4716 13.8888 25.5709L21.4842 26.3067C21.5963 26.322 21.7108 26.294 21.8101 26.238L31.0682 21.0182C31.4324 20.812 31.8881 20.9316 32.1402 21.3543C32.3516 21.7082 32.2472 22.164 31.9212 22.3804L21.0565 28.9294L9.68497 30.8594L1.3817 28.8733C1.08124 28.8046 0.780789 28.9879 0.712041 29.2884C0.640746 29.5863 0.824075 29.8867 1.12198 29.958L9.53729 31.9696C9.57803 31.9798 9.62131 31.9848 9.6646 31.9848C9.6977 31.9848 9.72826 31.9823 9.75881 31.9772L21.3467 30.0115C21.4155 29.9988 21.4817 29.9759 21.5402 29.9402Z" fill="#393939"/>
<path d="M27.7631 3.81353H29.7721V6.45652H27.7631V3.81353ZM26.6198 1.5983C28.0534 1.59576 29.5938 1.59576 30.9153 1.59321V2.69827H26.6198V1.5983ZM33.1789 10.5789H32.5857V7.01414C32.5857 6.70605 32.3387 6.45652 32.0306 6.45652H30.8848V3.81353H31.4704C31.7785 3.81353 32.028 3.56399 32.028 3.2559V1.59321C33.3521 1.59066 34.2611 1.59066 34.2611 1.59066L34.2585 0.475412C34.2585 0.475412 33.1178 0.475412 31.529 0.477958C31.5086 0.475412 31.4908 0.467773 31.4704 0.467773C31.45 0.467773 31.4322 0.475412 31.4144 0.477958C29.8536 0.480504 27.8904 0.480505 26.1437 0.483051C26.1157 0.477959 26.0928 0.467773 26.0622 0.467773C26.0342 0.467773 26.0087 0.477959 25.9833 0.483051C24.621 0.483051 23.409 0.485597 22.6477 0.485597C20.1651 0.485597 16.2567 1.54228 16.0912 1.58812C15.7958 1.6696 15.6201 1.97514 15.7016 2.27305C15.7678 2.52004 15.9919 2.683 16.2363 2.683C16.2847 2.683 16.3331 2.67791 16.384 2.66517C16.4222 2.65244 20.3128 1.60085 22.6477 1.60085C23.3174 1.60085 24.341 1.5983 25.5071 1.5983V3.2559C25.5071 3.56399 25.7567 3.81353 26.0622 3.81353H26.6504V6.45652H25.502C25.1965 6.45652 24.947 6.70605 24.947 7.01414V10.5789H24.3537C22.6375 10.5789 21.2422 11.9768 21.2422 13.698V18.2863C21.2422 18.5944 21.4917 18.8439 21.7973 18.8439C22.1054 18.8439 22.3549 18.5944 22.3549 18.2863V13.698C22.3549 12.5929 23.2512 11.6941 24.3537 11.6941H29.3952C29.7008 11.6941 29.9503 11.4446 29.9503 11.1365C29.9503 10.8284 29.7008 10.5789 29.3952 10.5789H26.0597V7.57177H31.4755V10.5789H31.0681C30.7626 10.5789 30.513 10.8284 30.513 11.1365C30.513 11.4446 30.7626 11.6941 31.0681 11.6941H33.1789C34.2815 11.6941 35.1803 12.5929 35.1803 13.698V33.0341C35.1803 34.1392 34.2815 35.0405 33.1789 35.0405H24.3537C23.2512 35.0405 22.3549 34.1392 22.3549 33.0341V31.1219C22.3549 30.8138 22.1054 30.5643 21.7973 30.5643C21.4917 30.5643 21.2422 30.8138 21.2422 31.1219V33.0341C21.2422 34.7554 22.6375 36.1558 24.3537 36.1558H33.1789C34.8951 36.1558 36.293 34.7554 36.293 33.0341V13.698C36.293 11.9768 34.8951 10.5789 33.1789 10.5789Z" fill="#393939"/>
<path d="M13.9062 11.3198L16.236 6.42853L18.5633 11.3148C18.7161 11.6534 18.7924 12.0048 18.7924 12.3613C18.7924 13.7744 17.6466 14.9253 16.236 14.9253C14.828 14.9253 13.6796 13.7744 13.6796 12.3613C13.6796 12.0048 13.7585 11.6509 13.9062 11.3198ZM16.236 16.0406C18.2603 16.0406 19.9051 14.3906 19.9051 12.3613C19.9051 11.8444 19.7957 11.3351 19.5767 10.8513C19.5741 10.8462 19.5716 10.8437 19.5716 10.8412L16.7376 4.8957C16.5543 4.50612 15.9203 4.50612 15.7344 4.8957L12.8979 10.8513C12.6789 11.3377 12.5669 11.8444 12.5669 12.3613C12.5669 14.3906 14.2143 16.0406 16.236 16.0406Z" fill="#393939"/>
</svg>
